<svg width="29" height="28" viewBox="0 0 29 28" fill="none" xmlns="http://www.w3.org/2000/svg">
<path fill-rule="evenodd" clip-rule="evenodd" d="M26.7598 0H2.24022C1.40008 0.000344911 0.71909 0.692143 0.71875 1.54562V26.4544C0.71909 27.3079 1.40008 27.9997 2.24022 28H14.5V17H11.2054V13H14.5V9.8125C14.5 6.19625 16.9689 4.2275 20.1491 4.2275C21.6706 4.2275 23.3071 4.34375 23.6873 4.395V8.17188H21.1538C19.4237 8.17188 19.094 9.00312 19.094 10.2281V13H23.216L22.6777 17H19.094V28H26.7598C27.5999 27.9997 28.2809 27.3079 28.2812 26.4544V1.54562C28.2809 0.692143 27.5999 0.000344911 26.7598 0Z" fill="#E94057"/>
</svg>
